<svg version="1.1" id="Layer_1" xmlns="http://www.w3.org/2000/svg" xmlns:xlink="http://www.w3.org/1999/xlink" x="0px" y="0px"
	 viewBox="0 0 14.3 25.8" enable-background="new 0 0 14.3 25.8" xml:space="preserve">
<path fill-rule="evenodd" clip-rule="evenodd" fill="#FFFFFF" d="M13.5,0.5c-0.9-0.8-2.4-0.7-3.1,0.3l-5,6L0,13.2l2.9,3.4l0,0
	l7.3,8.4c0.8,0.9,2.2,1,3.2,0.2c0.9-0.8,1-2.2,0.2-3.2l-7.8-9l7.9-9.5C14.6,2.7,14.4,1.3,13.5,0.5z"/>
<path fill-rule="evenodd" clip-rule="evenodd" fill="#FFFFFF" d="M13.5,0.5c-0.9-0.8-2.4-0.7-3.1,0.3l-5,6L0,13.2l2.9,3.4l0,0
	l7.3,8.4c0.8,0.9,2.2,1,3.2,0.2c0.9-0.8,1-2.2,0.2-3.2l-7.8-9l7.9-9.5C14.6,2.7,14.4,1.3,13.5,0.5z"/>
</svg>
